<svg width="16" height="16" viewBox="0 0 16 16" fill="none" xmlns="http://www.w3.org/2000/svg">
<path d="M12.8134 10.1668L11.1334 9.9735C10.7267 9.92684 10.3267 10.0668 10.04 10.3535L8.80669 11.5868C7.86069 11.1068 7.00269 10.4808 6.26136 9.73884C5.51936 8.9975 4.89336 8.1395 4.41336 7.1935L5.64669 5.96017C5.93336 5.6735 6.07336 5.2735 6.02669 4.86684L5.83336 3.18684C5.75336 2.5135 5.18669 2.00684 4.50669 2.00684H3.35336C2.60003 2.00684 1.97336 2.6335 2.02003 3.38684C2.19669 6.23284 3.42269 8.79217 5.31536 10.6848C7.20803 12.5775 9.76736 13.8035 12.6134 13.9802C13.3667 14.0268 13.9934 13.4002 13.9934 12.6468V11.4935C13.9934 10.8135 13.4867 10.2468 12.8134 10.1668Z" fill="white"/>
</svg>
