<svg width="61" height="60" viewBox="0 0 61 60" fill="none" xmlns="http://www.w3.org/2000/svg">
<path d="M20.281 51.3333H25.2964C24.7706 46.9036 24.5056 41.1375 25.2964 34.4952C25.9222 29.2395 27.055 24.7303 28.2222 21.1111C27.5255 21.1111 26.829 21.1111 26.1324 21.1111C24.4955 24.72 22.7113 29.5214 21.5349 35.3587C20.2663 41.6528 20.1058 47.1598 20.281 51.3333Z" fill="#FFB822"/>
<path d="M20.281 51.3333H25.2964C24.7706 46.9036 24.5056 41.1375 25.2964 34.4952C25.9222 29.2395 27.055 24.7303 28.2222 21.1111C27.5255 21.1111 26.829 21.1111 26.1324 21.1111C24.4955 24.72 22.7113 29.5214 21.5349 35.3587C20.2663 41.6528 20.1058 47.1598 20.281 51.3333Z" fill="url(#paint0_linear_524_109)"/>
<path d="M24.2361 34.4952C24.8113 29.2395 25.8527 24.7303 26.9256 21.1111C27.3578 21.1111 27.7901 21.1111 28.2222 21.1111C27.1493 24.7303 26.1079 29.2395 25.5327 34.4952C24.8057 41.1374 25.0493 46.9035 25.5327 51.3333H24.2361C23.7528 46.9037 23.5091 41.1375 24.2361 34.4952Z" fill="#FFB822"/>
<path d="M24.2361 34.4952C24.8113 29.2395 25.8527 24.7303 26.9256 21.1111C27.3578 21.1111 27.7901 21.1111 28.2222 21.1111C27.1493 24.7303 26.1079 29.2395 25.5327 34.4952C24.8057 41.1374 25.0493 46.9035 25.5327 51.3333H24.2361C23.7528 46.9037 23.5091 41.1375 24.2361 34.4952Z" fill="url(#paint1_linear_524_109)"/>
<path d="M25.7818 17.9713C22.3286 12.327 14.9242 10.533 9.24376 13.964C8.42586 14.4581 7.68859 15.0337 7.0357 15.6738C6.51617 16.1831 6.80319 17.0255 7.51029 17.1968L25.8311 21.636C26.5361 21.8068 27.1762 21.1931 26.9513 20.5034C26.6681 19.635 26.2799 18.7853 25.7818 17.9713Z" fill="#FFB822"/>
<path d="M25.7818 17.9713C22.3286 12.327 14.9242 10.533 9.24376 13.964C8.42586 14.4581 7.68859 15.0337 7.0357 15.6738C6.51617 16.1831 6.80319 17.0255 7.51029 17.1968L25.8311 21.636C26.5361 21.8068 27.1762 21.1931 26.9513 20.5034C26.6681 19.635 26.2799 18.7853 25.7818 17.9713Z" fill="url(#paint2_linear_524_109)"/>
<path d="M29.3663 18.588C32.6478 12.6862 30.45 5.28178 24.4574 2.04999C23.5786 1.57601 22.6669 1.21851 21.7406 0.971707C21.0386 0.784679 20.4565 1.45596 20.6632 2.15237L26.1201 20.5366C26.3252 21.2273 27.1691 21.476 27.6584 20.947C28.3074 20.2453 28.8829 19.4574 29.3663 18.588Z" fill="#FFB822"/>
<path d="M29.3663 18.588C32.6478 12.6862 30.45 5.28178 24.4574 2.04999C23.5786 1.57601 22.6669 1.21851 21.7406 0.971707C21.0386 0.784679 20.4565 1.45596 20.6632 2.15237L26.1201 20.5366C26.3252 21.2273 27.1691 21.476 27.6584 20.947C28.3074 20.2453 28.8829 19.4574 29.3663 18.588Z" fill="url(#paint3_linear_524_109)"/>
<path d="M23.6253 20.4228C16.9117 20.5746 11.5922 26.1402 11.7439 32.8538C11.766 33.8306 11.9031 34.7778 12.1415 35.683C12.3263 36.3846 13.1968 36.5557 13.6981 36.0312L26.8878 22.2314C27.3892 21.7069 27.1789 20.8451 26.4696 20.6922C25.5546 20.4949 24.6022 20.4008 23.6253 20.4228Z" fill="#FFB822"/>
<path d="M23.6253 20.4228C16.9117 20.5746 11.5922 26.1402 11.7439 32.8538C11.766 33.8306 11.9031 34.7778 12.1415 35.683C12.3263 36.3846 13.1968 36.5557 13.6981 36.0312L26.8878 22.2314C27.3892 21.7069 27.1789 20.8451 26.4696 20.6922C25.5546 20.4949 24.6022 20.4008 23.6253 20.4228Z" fill="url(#paint4_linear_524_109)"/>
<path d="M27.8786 17.7937C31.3668 12.0553 38.8465 10.2314 44.5848 13.7196C45.4197 14.2272 46.1714 14.8195 46.836 15.4784C47.3513 15.9893 47.0642 16.8287 46.3593 17.0006L27.8135 21.5232C27.1086 21.6951 26.4674 21.0821 26.6896 20.3914C26.9763 19.5004 27.3711 18.6286 27.8786 17.7937Z" fill="#FFB822"/>
<path d="M27.8786 17.7937C31.3668 12.0553 38.8465 10.2314 44.5848 13.7196C45.4197 14.2272 46.1714 14.8195 46.836 15.4784C47.3513 15.9893 47.0642 16.8287 46.3593 17.0006L27.8135 21.5232C27.1086 21.6951 26.4674 21.0821 26.6896 20.3914C26.9763 19.5004 27.3711 18.6286 27.8786 17.7937Z" fill="url(#paint5_linear_524_109)"/>
<path d="M30.7178 21.1141C37.3422 21.2593 42.5911 26.5822 42.4412 33.0031C42.4196 33.931 42.286 34.8309 42.0537 35.6912C41.8676 36.3806 41.0139 36.55 40.5125 36.0415L27.5607 22.9069C27.0436 22.3825 27.2558 21.5047 27.9776 21.358C28.8602 21.1787 29.7775 21.0936 30.7178 21.1141Z" fill="#FFB822"/>
<path d="M30.7178 21.1141C37.3422 21.2593 42.5911 26.5822 42.4412 33.0031C42.4196 33.931 42.286 34.8309 42.0537 35.6912C41.8676 36.3806 41.0139 36.55 40.5125 36.0415L27.5607 22.9069C27.0436 22.3825 27.2558 21.5047 27.9776 21.358C28.8602 21.1787 29.7775 21.0936 30.7178 21.1141Z" fill="url(#paint6_linear_524_109)"/>
<path d="M29.5555 44.2222C37.3155 44.2222 44.6259 46.1669 51.0361 49.5998C51.9181 50.0722 51.5661 51.3333 50.5656 51.3333H8.54554C7.54506 51.3333 7.19304 50.0722 8.075 49.5998C14.4852 46.1669 21.7955 44.2222 29.5555 44.2222Z" fill="#FFB822"/>
<path d="M29.5555 44.2222C37.3155 44.2222 44.6259 46.1669 51.0361 49.5998C51.9181 50.0722 51.5661 51.3333 50.5656 51.3333H8.54554C7.54506 51.3333 7.19304 50.0722 8.075 49.5998C14.4852 46.1669 21.7955 44.2222 29.5555 44.2222Z" fill="url(#paint7_linear_524_109)"/>
<path d="M29.8939 44.2222C37.5481 44.2222 44.7588 46.1678 51.0813 49.6021C51.9575 50.0781 51.6028 51.3333 50.6057 51.3333H49.1733C48.981 51.3333 48.793 51.2776 48.6307 51.1744C42.382 47.2 35.1202 44.7404 27.3333 44.2958C28.181 44.2473 29.0345 44.2222 29.8939 44.2222Z" fill="#FFB822"/>
<path d="M29.8939 44.2222C37.5481 44.2222 44.7588 46.1678 51.0813 49.6021C51.9575 50.0781 51.6028 51.3333 50.6057 51.3333H49.1733C48.981 51.3333 48.793 51.2776 48.6307 51.1744C42.382 47.2 35.1202 44.7404 27.3333 44.2958C28.181 44.2473 29.0345 44.2222 29.8939 44.2222Z" fill="url(#paint8_linear_524_109)"/>
<ellipse rx="1.33333" ry="1.33333" transform="matrix(-1 0 0 1 26.8888 21.5555)" fill="#2A2A2A"/>
<ellipse rx="0.888889" ry="0.888888" transform="matrix(-1 0 0 1 28.2222 19.3332)" fill="#2A2A2A"/>
<ellipse rx="1.77778" ry="1.77778" transform="matrix(-1 0 0 1 24.6666 18.4445)" fill="#2A2A2A"/>
<path d="M45.1111 25.2195C50.6301 23.5633 50.6301 26.8762 56.1491 24.6667" stroke="white" stroke-linecap="round"/>
<path d="M49.3003 29.2715C54.4251 27.6153 54.4251 30.9282 59.5499 28.7188" stroke="white" stroke-linecap="round"/>
<path fill-rule="evenodd" clip-rule="evenodd" d="M56.5178 56.3467C56.9584 55.9128 57.673 55.9128 58.1136 56.3467C58.5543 56.7806 58.5543 57.4842 58.1136 57.9181C57.1589 58.8581 55.8897 59.3759 54.5397 59.3759C53.1897 59.3759 51.9204 58.8581 50.9657 57.9181C50.4373 57.3978 49.7349 57.1114 48.9876 57.1114C48.2405 57.1114 47.538 57.3978 47.0096 57.9181C46.055 58.8581 44.7857 59.3759 43.4357 59.3759C42.0857 59.3759 40.8164 58.8581 39.8617 57.9181C39.3334 57.3978 38.6309 57.1114 37.8837 57.1114C37.1365 57.1114 36.434 57.3978 35.9057 57.9181C33.9349 59.8584 30.7284 59.8584 28.7576 57.9181C27.667 56.8442 25.8921 56.8442 24.8014 57.9181C23.8469 58.8581 22.5776 59.3759 21.2275 59.3759C19.8775 59.3759 18.6081 58.8581 17.6535 57.9181C16.5628 56.8442 14.788 56.8442 13.6973 57.9181C12.7426 58.8581 11.4733 59.3759 10.1234 59.3759C8.77337 59.3759 7.50398 58.8581 6.5494 57.9181C5.45863 56.8442 3.68389 56.8442 2.59323 57.9181C2.15245 58.352 1.43792 58.352 0.997249 57.9181C0.556581 57.4842 0.556581 56.7806 0.997249 56.3467C1.95194 55.4067 3.22133 54.8889 4.57133 54.8889C5.9213 54.8889 7.19059 55.4067 8.14527 56.3467C8.67365 56.867 9.37608 57.1534 10.1234 57.1534C10.8705 57.1534 11.573 56.867 12.1013 56.3467C13.056 55.4067 14.3253 54.8889 15.6753 54.8889C17.0253 54.8889 18.2946 55.4067 19.2493 56.3467C19.7776 56.867 20.4801 57.1534 21.2272 57.1534C21.9745 57.1534 22.677 56.867 23.2053 56.3467C25.1761 54.4064 28.3826 54.4064 30.3534 56.3467C31.444 57.4206 33.2189 57.4206 34.3095 56.3467C35.2641 55.4067 36.5334 54.8889 37.8835 54.8889C39.2335 54.8889 40.5029 55.4067 41.4575 56.3467C42.5481 57.4206 44.323 57.4206 45.4136 56.3467C46.3683 55.4067 47.6376 54.8889 48.9876 54.8889C50.3376 54.8889 51.607 55.4067 52.5616 56.3467C53.6523 57.4206 55.4271 57.4206 56.5178 56.3467Z" fill="#FFB822"/>
<path fill-rule="evenodd" clip-rule="evenodd" d="M56.5178 56.3467C56.9584 55.9128 57.673 55.9128 58.1136 56.3467C58.5543 56.7806 58.5543 57.4842 58.1136 57.9181C57.1589 58.8581 55.8897 59.3759 54.5397 59.3759C53.1897 59.3759 51.9204 58.8581 50.9657 57.9181C50.4373 57.3978 49.7349 57.1114 48.9876 57.1114C48.2405 57.1114 47.538 57.3978 47.0096 57.9181C46.055 58.8581 44.7857 59.3759 43.4357 59.3759C42.0857 59.3759 40.8164 58.8581 39.8617 57.9181C39.3334 57.3978 38.6309 57.1114 37.8837 57.1114C37.1365 57.1114 36.434 57.3978 35.9057 57.9181C33.9349 59.8584 30.7284 59.8584 28.7576 57.9181C27.667 56.8442 25.8921 56.8442 24.8014 57.9181C23.8469 58.8581 22.5776 59.3759 21.2275 59.3759C19.8775 59.3759 18.6081 58.8581 17.6535 57.9181C16.5628 56.8442 14.788 56.8442 13.6973 57.9181C12.7426 58.8581 11.4733 59.3759 10.1234 59.3759C8.77337 59.3759 7.50398 58.8581 6.5494 57.9181C5.45863 56.8442 3.68389 56.8442 2.59323 57.9181C2.15245 58.352 1.43792 58.352 0.997249 57.9181C0.556581 57.4842 0.556581 56.7806 0.997249 56.3467C1.95194 55.4067 3.22133 54.8889 4.57133 54.8889C5.9213 54.8889 7.19059 55.4067 8.14527 56.3467C8.67365 56.867 9.37608 57.1534 10.1234 57.1534C10.8705 57.1534 11.573 56.867 12.1013 56.3467C13.056 55.4067 14.3253 54.8889 15.6753 54.8889C17.0253 54.8889 18.2946 55.4067 19.2493 56.3467C19.7776 56.867 20.4801 57.1534 21.2272 57.1534C21.9745 57.1534 22.677 56.867 23.2053 56.3467C25.1761 54.4064 28.3826 54.4064 30.3534 56.3467C31.444 57.4206 33.2189 57.4206 34.3095 56.3467C35.2641 55.4067 36.5334 54.8889 37.8835 54.8889C39.2335 54.8889 40.5029 55.4067 41.4575 56.3467C42.5481 57.4206 44.323 57.4206 45.4136 56.3467C46.3683 55.4067 47.6376 54.8889 48.9876 54.8889C50.3376 54.8889 51.607 55.4067 52.5616 56.3467C53.6523 57.4206 55.4271 57.4206 56.5178 56.3467Z" fill="url(#paint9_linear_524_109)"/>
<defs>
<linearGradient id="paint0_linear_524_109" x1="23.0049" y1="21.1111" x2="23.0049" y2="51.2542" gradientUnits="userSpaceOnUse">
<stop stop-color="#F6871F" stop-opacity="0.7"/>
<stop offset="1" stop-color="#FCB216"/>
</linearGradient>
<linearGradient id="paint1_linear_524_109" x1="25.3237" y1="21.1111" x2="25.3237" y2="51.2542" gradientUnits="userSpaceOnUse">
<stop stop-color="#F6871F" stop-opacity="0.7"/>
<stop offset="1" stop-color="#FCB216"/>
</linearGradient>
<linearGradient id="paint2_linear_524_109" x1="12.584" y1="11.6925" x2="12.584" y2="21.4447" gradientUnits="userSpaceOnUse">
<stop stop-color="#F6871F" stop-opacity="0.7"/>
<stop offset="1" stop-color="#FCB216"/>
</linearGradient>
<linearGradient id="paint3_linear_524_109" x1="23.9326" y1="0.666748" x2="23.9326" y2="21.9442" gradientUnits="userSpaceOnUse">
<stop stop-color="#F6871F" stop-opacity="0.7"/>
<stop offset="1" stop-color="#FCB216"/>
</linearGradient>
<linearGradient id="paint4_linear_524_109" x1="17.3812" y1="20.4197" x2="17.3812" y2="37.1052" gradientUnits="userSpaceOnUse">
<stop stop-color="#F6871F" stop-opacity="0.7"/>
<stop offset="1" stop-color="#FCB216"/>
</linearGradient>
<linearGradient id="paint5_linear_524_109" x1="33.8075" y1="11.9487" x2="33.8075" y2="21.8635" gradientUnits="userSpaceOnUse">
<stop stop-color="#F6871F" stop-opacity="0.7"/>
<stop offset="1" stop-color="#FCB216"/>
</linearGradient>
<linearGradient id="paint6_linear_524_109" x1="32.0099" y1="21.1111" x2="32.0099" y2="37.0692" gradientUnits="userSpaceOnUse">
<stop stop-color="#F6871F" stop-opacity="0.7"/>
<stop offset="1" stop-color="#FCB216"/>
</linearGradient>
<linearGradient id="paint7_linear_524_109" x1="22.117" y1="44.2222" x2="22.117" y2="51.3147" gradientUnits="userSpaceOnUse">
<stop stop-color="#F6871F" stop-opacity="0.7"/>
<stop offset="1" stop-color="#FCB216"/>
</linearGradient>
<linearGradient id="paint8_linear_524_109" x1="36.6093" y1="44.2222" x2="36.6093" y2="51.3147" gradientUnits="userSpaceOnUse">
<stop stop-color="#F6871F" stop-opacity="0.7"/>
<stop offset="1" stop-color="#FCB216"/>
</linearGradient>
<linearGradient id="paint9_linear_524_109" x1="38.3464" y1="54.8889" x2="38.3464" y2="59.3641" gradientUnits="userSpaceOnUse">
<stop stop-color="#F6871F" stop-opacity="0.7"/>
<stop offset="1" stop-color="#FCB216"/>
</linearGradient>
</defs>
</svg>
