<svg width="8" height="8" viewBox="0 0 8 8" fill="none" xmlns="http://www.w3.org/2000/svg">
<g opacity="0.5">
<path d="M3.99997 0.799805C2.96903 0.799805 2.1333 1.63554 2.1333 2.66647C2.1333 3.60655 2.82913 4.382 3.7333 4.51178V6.93314C3.7328 6.96847 3.73933 7.00356 3.75251 7.03635C3.76568 7.06914 3.78525 7.09899 3.81006 7.12415C3.83487 7.14932 3.86444 7.1693 3.89704 7.18294C3.92964 7.19658 3.96463 7.2036 3.99997 7.2036C4.03531 7.2036 4.0703 7.19658 4.1029 7.18294C4.1355 7.1693 4.16507 7.14932 4.18988 7.12415C4.21469 7.09899 4.23425 7.06914 4.24743 7.03635C4.26061 7.00356 4.26713 6.96847 4.26663 6.93314V4.51178C5.1708 4.382 5.86663 3.60655 5.86663 2.66647C5.86663 1.63554 5.0309 0.799805 3.99997 0.799805ZM3.99997 1.33314C4.33143 1.33314 4.59997 1.51234 4.59997 1.73314C4.59997 1.95394 4.33143 2.13314 3.99997 2.13314C3.6685 2.13314 3.39997 1.95394 3.39997 1.73314C3.39997 1.51234 3.6685 1.33314 3.99997 1.33314Z" fill="white"/>
</g>
</svg>
