<svg width="64" height="32" viewBox="0 0 64 32" fill="none" xmlns="http://www.w3.org/2000/svg">
<path d="M5.12 22.7204L7.52 4.88037L4.88 5.52037C4.24 5.60037 2.88 5.84037 2.8 6.88037L0 27.6004C0 28.7204 0.8 29.6804 1.76 29.6804L13.76 30.8804C14.72 30.8804 15.52 30.0004 15.52 28.8004L15.36 25.6004L6.88 24.8004C5.92 24.8004 5.12 23.9204 5.12 22.7204Z" fill="#F6871F"/>
<path d="M19.4411 7.4401C19.4411 6.6401 19.0411 5.8401 18.3211 5.5201L9.36109 1.2801C8.96109 1.0401 8.48109 1.0401 8.00109 1.2801L7.52109 4.8801L5.12109 22.7201C5.12109 23.8401 5.92109 24.8001 6.88109 24.8001L15.3611 25.6001L18.8811 25.9201C19.8411 25.9201 20.6411 25.0401 20.6411 23.8401L19.4411 7.4401Z" fill="#FCB216"/>
<path d="M36.2402 6.72021V20.0002H34.0802V13.9202H27.5202V20.0002H25.3602V6.72021H27.5202V11.9202H34.0802V6.72021H36.2402Z" fill="white"/>
<path d="M48.88 15.2002C48.88 18.2402 46.72 20.2402 43.84 20.2402C40.96 20.2402 38.8 18.2402 38.8 15.2002C38.8 12.1602 40.96 10.1602 43.84 10.1602C46.8 10.2402 48.88 12.1602 48.88 15.2002ZM46.88 15.2002C46.88 13.2802 45.52 12.0002 43.84 12.0002C42.16 12.0002 40.88 13.2002 40.88 15.2002C40.88 17.1202 42.16 18.4002 43.84 18.4002C45.52 18.4002 46.88 17.2002 46.88 15.2002Z" fill="white"/>
<path d="M54.16 12.1599V16.7199C54.16 17.5999 54.72 18.0799 55.6 18.0799H56.88V19.9999H55.28C53.28 19.9999 52.16 19.0399 52.16 17.0399V12.1599H50V10.4799H52.16V7.43994H54.16V10.4799H56.96V12.1599H54.16Z" fill="white"/>
<path d="M27.0414 26.3198H26.3214V28.5598H25.4414V23.2798H27.6014C28.7214 23.2798 29.3614 23.9198 29.3614 24.7998C29.3614 25.5998 28.8814 26.1598 28.0014 26.3198L29.5214 28.5598H28.5614L27.0414 26.3198ZM26.3214 25.5998H27.5214C28.1614 25.5998 28.4814 25.3598 28.4814 24.7998C28.4814 24.3198 28.1614 23.9998 27.5214 23.9998H26.3214V25.5998Z" fill="white"/>
<path d="M30.72 26.8001C30.8 27.6001 31.36 27.9201 32 27.9201C32.48 27.9201 32.88 27.7601 33.28 27.4401H33.36V28.2401C32.88 28.4801 32.4 28.6401 32 28.6401C30.88 28.6401 30 28.0001 30 26.6401C30 25.2801 30.88 24.6401 31.92 24.6401C32.4 24.6401 32.88 24.8001 33.12 25.1201C33.44 25.4401 33.6 25.8401 33.6 26.4801C33.6 26.6401 33.6 26.7201 33.6 26.8801L30.72 26.8001ZM32.8 26.2401C32.72 25.6801 32.4 25.3601 31.84 25.3601C31.28 25.3601 30.88 25.6801 30.72 26.2401H32.8Z" fill="white"/>
<path d="M37.5202 28.5601H36.8002V28.1601C36.5602 28.4801 36.0802 28.6401 35.6002 28.6401C34.7202 28.6401 34.1602 28.0801 34.1602 27.4401C34.1602 26.7201 34.7202 26.2401 35.6802 26.2401C36.0802 26.2401 36.4802 26.3201 36.7202 26.5601V26.2401C36.7202 25.6001 36.3202 25.3601 35.7602 25.3601C35.3602 25.3601 35.0402 25.4401 34.7202 25.6801H34.6402V24.8801C35.0402 24.7201 35.5202 24.6401 35.9202 24.6401C36.8802 24.6401 37.5202 25.1201 37.5202 26.1601V28.5601ZM35.9202 26.8001C35.3602 26.8001 35.0402 27.0401 35.0402 27.3601C35.0402 27.6801 35.3602 27.9201 35.9202 27.9201C36.4802 27.9201 36.8002 27.6801 36.8002 27.3601C36.8002 27.1201 36.4802 26.8001 35.9202 26.8001Z" fill="white"/>
<path d="M39.4398 22.8804V28.5604H38.6398V22.8804H39.4398Z" fill="white"/>
<path d="M45.7601 27.7603V28.5603H42.4801V23.2803H45.6001V24.0803H43.2801V25.4403H45.4401V26.1603H43.2801V27.8403H45.7601V27.7603Z" fill="white"/>
<path d="M46.4801 27.5201H46.5601C46.8801 27.7601 47.2801 27.9201 47.7601 27.9201C48.2401 27.9201 48.4801 27.7601 48.4801 27.5201C48.4801 27.3601 48.3201 27.2001 48.0801 27.0401L47.4401 26.7201C46.8801 26.4801 46.6401 26.0801 46.6401 25.6001C46.6401 25.2801 46.8001 24.9601 47.0401 24.8001C47.2801 24.6401 47.6001 24.5601 48.0001 24.5601C48.4801 24.5601 48.8001 24.6401 49.1201 24.8801V25.6001H49.0401C48.7201 25.3601 48.4001 25.2801 48.0001 25.2801C47.6001 25.2801 47.4401 25.4401 47.4401 25.6001C47.4401 25.7601 47.6001 25.9201 47.9201 26.0801L48.5601 26.4001C49.1201 26.6401 49.3601 26.9601 49.3601 27.5201C49.3601 27.9201 49.2001 28.1601 48.9601 28.4001C48.6401 28.5601 48.3201 28.6401 47.9201 28.6401C47.4401 28.6401 46.9601 28.4801 46.6401 28.3201L46.4801 27.5201Z" fill="white"/>
<path d="M51.3616 25.4401V27.2001C51.3616 27.6001 51.6016 27.7601 51.9216 27.7601H52.4016V28.5601H51.7616C50.9616 28.5601 50.4816 28.1601 50.4816 27.3601V25.4401H49.6016V24.8001H50.4816V23.6001H51.2816V24.8001H52.4016V25.4401H51.3616Z" fill="white"/>
<path d="M56.3202 28.5601H55.6002V28.1601C55.3602 28.4801 54.8802 28.6401 54.4002 28.6401C53.5202 28.6401 52.9602 28.0801 52.9602 27.4401C52.9602 26.7201 53.5202 26.2401 54.4802 26.2401C54.8802 26.2401 55.2802 26.3201 55.5202 26.5601V26.2401C55.5202 25.6001 55.1202 25.3601 54.5602 25.3601C54.1602 25.3601 53.8402 25.4401 53.5202 25.6801H53.4402V24.8801C53.8402 24.7201 54.3202 24.6401 54.7202 24.6401C55.6802 24.6401 56.3202 25.1201 56.3202 26.1601V28.5601ZM54.7202 26.8001C54.1602 26.8001 53.8402 27.0401 53.8402 27.3601C53.8402 27.6801 54.1602 27.9201 54.7202 27.9201C55.2802 27.9201 55.6002 27.6801 55.6002 27.3601C55.6002 27.1201 55.2802 26.8001 54.7202 26.8001Z" fill="white"/>
<path d="M58.6389 25.4401V27.2001C58.6389 27.6001 58.8789 27.7601 59.1989 27.7601H59.6789V28.5601H59.0389C58.2389 28.5601 57.7589 28.1601 57.7589 27.3601V25.4401H56.8789V24.8001H57.7589V23.6001H58.5589V24.8001H59.6789V25.4401H58.6389Z" fill="white"/>
<path d="M61.1184 26.8001C61.1984 27.6001 61.7584 27.9201 62.3984 27.9201C62.8784 27.9201 63.2784 27.7601 63.6784 27.4401H63.7584V28.2401C63.2784 28.4801 62.7984 28.6401 62.3984 28.6401C61.2784 28.6401 60.3984 28.0001 60.3984 26.6401C60.3984 25.2801 61.2784 24.6401 62.3184 24.6401C62.7984 24.6401 63.2784 24.8001 63.5184 25.1201C63.8384 25.4401 63.9984 25.8401 63.9984 26.4801C63.9984 26.6401 63.9984 26.7201 63.9984 26.8801L61.1184 26.8001ZM63.1984 26.2401C63.1184 25.6801 62.7984 25.3601 62.2384 25.3601C61.6784 25.3601 61.2784 25.6801 61.1184 26.2401H63.1984Z" fill="white"/>
</svg>
